<svg width="698" height="468" viewBox="0 0 698 468" fill="none" xmlns="http://www.w3.org/2000/svg">
<g clip-path="url(#clip0_3728_12618)">
<path d="M239.75 118.415C239.75 150.638 213.598 176.79 181.375 176.79C149.152 176.79 123 202.942 123 235.165V351.915C123 384.138 149.152 410.29 181.375 410.29C213.598 410.29 239.75 384.138 239.75 351.915C239.75 319.692 265.902 293.54 298.125 293.54H414.875C447.098 293.54 473.25 267.388 473.25 235.165C473.25 202.942 499.402 176.79 531.625 176.79C563.848 176.79 590 150.638 590 118.415C590 86.192 563.848 60.04 531.625 60.04H298.125C265.902 60.04 239.75 86.192 239.75 118.415Z" fill="#E3FCF7"/>
<g clip-path="url(#clip1_3728_12618)">
<path d="M404.454 133.289L401.854 197.406L336.68 229.049L337.401 165.841L404.454 133.289Z" fill="black" stroke="black" stroke-linejoin="round"/>
<path d="M404.384 133.151L352.368 95.5488L287.193 127.202L337.342 165.703L404.384 133.151Z" fill="#B2FD34" stroke="black" stroke-linejoin="round"/>
<path d="M287.263 190.182L336.68 229.049L337.342 165.704L287.193 127.202L287.263 190.182Z" fill="#B2FD34" stroke="black" stroke-linejoin="round"/>
<path d="M376.201 205.52L373.334 215.926C370.269 227.023 389.951 242.124 417.294 249.664C444.637 257.204 469.281 254.318 472.336 243.221L475.203 232.815L376.201 205.52Z" fill="black" stroke="black" stroke-miterlimit="10"/>
<path d="M385.403 172.156L374.697 210.954C371.633 222.052 391.315 237.152 418.657 244.692C446 252.233 470.645 249.347 473.699 238.249L484.405 199.451C487.469 188.353 467.788 173.253 440.445 165.713C413.102 158.173 388.458 161.058 385.403 172.156Z" fill="#00EB64"/>
<path d="M484.405 199.451L473.699 238.249C470.635 249.347 445.99 252.233 418.657 244.693C391.315 237.152 371.633 222.052 374.697 210.954L385.403 172.156" stroke="black" stroke-miterlimit="10"/>
<path d="M478.939 219.285C475.875 230.383 451.231 233.269 423.898 225.729C396.555 218.188 376.873 203.088 379.937 191.99" stroke="black" stroke-miterlimit="10"/>
<path d="M478.059 184.885L460.779 247.499C467.758 245.839 472.474 242.706 473.699 238.249L484.405 199.451C485.631 194.994 483.189 189.885 478.059 184.885Z" fill="black" stroke="black" stroke-miterlimit="10"/>
<path d="M484.403 199.461C487.464 188.364 467.782 173.257 440.44 165.718C413.099 158.179 388.453 161.063 385.391 172.159C382.33 183.256 402.012 198.363 429.354 205.902C456.695 213.441 481.341 210.557 484.403 199.461Z" fill="white" stroke="black" stroke-miterlimit="10"/>
<path d="M427.308 177.592L425.331 184.776C424.768 186.832 428.405 189.629 433.467 191.022C438.528 192.415 443.085 191.882 443.658 189.826L445.636 182.642C446.199 180.586 442.561 177.79 437.5 176.396C432.439 175.003 427.881 175.536 427.308 177.592Z" fill="#AFFF05" stroke="black" stroke-miterlimit="10"/>
<path d="M441.781 178.067L436.166 191.586C440.061 192.159 443.195 191.497 443.649 189.817L445.626 182.632C446.012 181.229 444.43 179.47 441.771 178.057L441.781 178.067Z" fill="black" stroke="black" stroke-miterlimit="10"/>
<path d="M500.152 142.361C503.217 131.263 483.535 116.163 456.192 108.623C428.849 101.083 404.205 103.968 401.15 115.066" stroke="black" stroke-miterlimit="10"/>
<path d="M402.1 111.646L391.394 150.444C388.33 161.542 408.012 176.642 435.355 184.183C462.698 191.723 487.342 188.837 490.396 177.739L501.102 138.941C504.167 127.844 484.485 112.743 457.142 105.203C429.799 97.6629 405.155 100.549 402.1 111.646Z" fill="#00EB64"/>
<path d="M494.746 124.375L477.467 186.989C484.446 185.329 489.161 182.197 490.387 177.74L501.093 138.942C502.319 134.485 499.877 129.375 494.746 124.375Z" fill="black" stroke="black" stroke-miterlimit="10"/>
<path d="M501.104 138.948C504.165 127.852 484.483 112.745 457.141 105.206C429.8 97.6667 405.154 100.55 402.092 111.647C399.031 122.743 418.713 137.85 446.055 145.389C473.396 152.928 498.042 150.044 501.104 138.948Z" fill="white" stroke="black" stroke-miterlimit="10"/>
<path d="M501.102 138.941L490.396 177.74C487.332 188.837 462.688 191.723 435.355 184.183C408.012 176.643 388.33 161.542 391.394 150.445L402.1 111.646" stroke="black" stroke-miterlimit="10"/>
<path d="M444.005 117.082L442.028 124.267C441.465 126.322 445.103 129.119 450.164 130.512C455.225 131.906 459.782 131.372 460.356 129.316L462.333 122.132C462.896 120.076 459.258 117.28 454.197 115.886C449.136 114.493 444.579 115.027 444.005 117.082Z" fill="#AFFF05" stroke="black" stroke-miterlimit="10"/>
<path d="M458.478 117.557L452.863 131.076C456.758 131.649 459.892 130.987 460.347 129.307L462.324 122.122C462.709 120.719 461.127 118.96 458.468 117.547L458.478 117.557Z" fill="black" stroke="black" stroke-miterlimit="10"/>
<path d="M418.786 51.1376L408.08 89.9356C405.016 101.033 424.697 116.134 452.04 123.674C479.383 131.214 504.027 128.328 507.082 117.231L517.788 78.4326C520.852 67.3347 501.171 52.2345 473.828 44.6943C446.485 37.1541 421.84 40.0397 418.786 51.1376Z" fill="#00EB64"/>
<path d="M517.799 78.4326C520.863 67.3347 501.182 52.2345 473.839 44.6943C446.496 37.1541 421.851 40.0397 418.797 51.1376" stroke="black" stroke-miterlimit="10"/>
<path d="M517.8 78.4327L507.094 117.231C504.029 128.329 479.385 131.214 452.052 123.674C424.709 116.134 405.027 101.034 408.092 89.9357L418.798 51.1377" stroke="black" stroke-miterlimit="10"/>
<path d="M512.441 97.8311C509.377 108.929 484.733 111.815 457.4 104.274C430.057 96.7342 410.375 81.634 413.439 70.5361" stroke="black" stroke-miterlimit="10"/>
<path d="M495.744 158.341C492.68 169.439 468.035 172.324 440.702 164.784C413.359 157.244 393.678 142.144 396.742 131.046" stroke="black" stroke-miterlimit="10"/>
<path d="M511.442 63.8652L494.162 126.48C501.141 124.819 505.857 121.687 507.082 117.23L517.788 78.4318C519.014 73.9749 516.572 68.8657 511.442 63.8652Z" fill="black" stroke="black" stroke-miterlimit="10"/>
<path d="M517.795 78.4361C520.857 67.3399 501.174 52.233 473.833 44.694C446.492 37.155 421.845 40.0387 418.784 51.135C415.722 62.2313 435.405 77.3381 462.746 84.8771C490.087 92.4162 514.734 89.5324 517.795 78.4361Z" fill="white" stroke="black" stroke-miterlimit="10"/>
<path d="M241.147 219.591C271.698 219.591 296.465 194.832 296.465 164.29C296.465 133.748 271.698 108.988 241.147 108.988C210.595 108.988 185.828 133.748 185.828 164.29C185.828 194.832 210.595 219.591 241.147 219.591Z" fill="#00ED64" stroke="black" stroke-miterlimit="10"/>
<path d="M238.805 221.044C238.805 221.044 284.149 163.292 264.062 114.789C282.627 121.45 304.028 148.774 295.606 180.111C286.689 213.286 258.605 221.261 238.805 221.044Z" fill="black"/>
<path d="M423.224 358.883L422.314 367.668H422.384L443.301 363.439H443.321L451.13 361.867L451.447 361.808L423.234 358.893L423.224 358.883Z" fill="white" stroke="black" stroke-linecap="round" stroke-linejoin="round"/>
<path d="M423.294 358.893L422.384 367.659H422.315L407.744 370.604L373.906 377.412L374.084 375.663C374.331 373.242 374.994 370.9 376.022 368.706V368.686C376.2 368.311 376.387 367.925 376.585 367.55C377.425 366.008 378.434 364.585 379.61 363.291L379.689 363.212C380.411 362.421 381.172 361.709 382.012 361.028C384.227 359.229 386.777 357.875 389.515 357.055C392.253 356.235 395.11 355.978 397.947 356.274L423.303 358.893H423.294Z" fill="#00EB64" stroke="black" stroke-linecap="round" stroke-linejoin="round"/>
<path d="M490.87 369.941C489.683 381.385 479.452 389.716 467.985 388.53C458.218 387.522 450.715 379.922 449.47 370.603L419.053 377.659L418.983 377.679L268.795 408.116L270.812 388.609L406.271 362.648L420.842 359.713H420.911L441.828 355.483H441.848L449.658 353.912L449.974 353.853L453.839 354.248C453.869 354.386 453.898 354.515 453.948 354.653C455.302 359.92 458.584 364.476 463.102 367.411C465.909 369.269 469.191 370.494 472.77 370.86C479.699 371.581 486.194 368.963 490.682 364.298C490.781 364.842 490.86 365.375 490.909 365.939V365.958C491.018 367.253 491.008 368.577 490.87 369.931V369.941Z" fill="black" stroke="black" stroke-linecap="round" stroke-linejoin="round"/>
<path d="M492.916 369.754L492.896 369.773L487.815 378.836C487.765 378.282 490.138 373.993 490.039 373.46C485.561 378.114 479.056 380.733 472.127 380.021C468.538 379.646 465.266 378.43 462.459 376.573C457.951 373.628 454.669 369.072 453.305 363.814C453.256 363.676 453.226 363.538 453.196 363.409L449.331 363.014L449.015 363.073C449.015 363.073 448.995 363.004 449.015 362.984C448.995 362.965 448.995 362.935 449.015 362.945C449.242 361.136 449.717 359.348 450.428 357.638L451.931 354.683L454.373 349.861C454.373 349.861 454.402 349.772 454.432 349.732L455.49 347.607C455.49 347.607 455.49 347.568 455.519 347.568L455.628 347.36H455.648L457.536 348.526L463.833 352.331L469.161 355.533C469.052 355.721 468.963 355.928 468.875 356.146C468.746 356.482 468.667 356.828 468.637 357.203C468.568 357.855 468.657 358.508 468.865 359.101C469.408 360.701 470.832 361.907 472.621 362.095C474.41 362.283 475.933 361.462 476.783 360.118L484.661 364.882L486.955 366.245L487.617 366.641L488.26 367.036L492.026 369.299L492.57 369.576L492.926 369.764L492.916 369.754Z" fill="black" stroke="black" stroke-linecap="round" stroke-linejoin="round"/>
<path d="M488.033 343.951C493.094 348.427 495.971 355.197 495.22 362.431C494.973 364.832 494.34 367.105 493.371 369.17C493.371 369.259 493.312 369.338 493.282 369.427C492.976 370.06 492.669 370.663 492.294 371.246L492.126 371.562L492.106 371.582C491.285 372.906 490.336 374.161 489.249 375.258C484.771 379.912 478.266 382.531 471.337 381.82C467.748 381.444 464.476 380.229 461.669 378.371C457.161 375.426 453.879 370.87 452.515 365.613C452.465 365.474 452.436 365.336 452.406 365.208C452.307 364.842 452.238 364.466 452.189 364.081C452.169 364.061 452.169 364.032 452.169 364.012C451.793 362.055 451.724 360.029 451.932 357.964C452.159 355.73 452.732 353.606 453.583 351.639C453.583 351.6 453.612 351.55 453.642 351.511L454.7 349.386C454.7 349.386 454.7 349.346 454.729 349.346C454.759 349.257 454.808 349.198 454.858 349.139C456.172 346.896 457.883 344.929 459.86 343.318C464.199 339.81 469.844 337.952 475.815 338.565C477.08 338.693 478.296 338.93 479.472 339.257H479.492C479.769 339.355 480.006 339.425 480.283 339.513L474.51 348.081L468.559 356.936L468.579 356.956C468.5 357.074 468.42 357.183 468.361 357.312C468.252 357.499 468.163 357.707 468.074 357.924C467.946 358.26 467.867 358.606 467.837 358.982C467.768 359.634 467.857 360.286 468.065 360.879" fill="#AFFF05"/>
<path d="M488.033 343.951C493.094 348.427 495.971 355.197 495.22 362.431C494.973 364.832 494.34 367.105 493.371 369.17C493.371 369.259 493.312 369.338 493.282 369.427C492.976 370.06 492.669 370.663 492.294 371.246L492.126 371.562L492.106 371.582C491.285 372.906 490.336 374.161 489.249 375.258C484.771 379.912 478.266 382.531 471.337 381.82C467.748 381.444 464.476 380.229 461.669 378.371C457.161 375.426 453.879 370.87 452.515 365.613C452.465 365.474 452.436 365.336 452.406 365.208C452.307 364.842 452.238 364.466 452.189 364.081C452.169 364.061 452.169 364.032 452.169 364.012C451.793 362.055 451.724 360.029 451.932 357.964C452.159 355.73 452.732 353.606 453.583 351.639C453.583 351.6 453.612 351.55 453.642 351.511L454.7 349.386C454.7 349.386 454.7 349.346 454.729 349.346C454.759 349.257 454.808 349.198 454.858 349.139C456.172 346.896 457.883 344.929 459.86 343.318C464.199 339.81 469.844 337.952 475.815 338.565C477.08 338.693 478.296 338.93 479.472 339.257H479.492C479.769 339.355 480.006 339.425 480.283 339.513L474.51 348.081L468.559 356.936L468.579 356.956C468.5 357.074 468.42 357.183 468.361 357.312C468.252 357.499 468.163 357.707 468.074 357.924C467.946 358.26 467.867 358.606 467.837 358.982C467.768 359.634 467.857 360.286 468.065 360.879" stroke="black" stroke-linecap="round" stroke-linejoin="round"/>
<path d="M471.278 354.317C471.169 354.505 471.08 354.713 470.991 354.93C470.862 355.266 470.783 355.612 470.754 355.987C470.684 356.64 470.773 357.292 470.981 357.885" fill="#AFFF05"/>
<path d="M471.278 354.317C471.169 354.505 471.08 354.713 470.991 354.93C470.862 355.266 470.783 355.612 470.754 355.987C470.684 356.64 470.773 357.292 470.981 357.885" stroke="black" stroke-linecap="round" stroke-linejoin="round"/>
<path d="M482.607 352.024C484.851 354.485 486.067 357.855 485.701 361.442C485.562 362.816 485.207 364.111 484.643 365.287C484.436 365.771 484.169 366.235 483.882 366.66C483.694 366.976 483.487 367.283 483.259 367.569C483.081 367.836 482.874 368.083 482.646 368.32C480.126 371.107 476.359 372.708 472.336 372.293C468.332 371.878 464.981 369.546 463.083 366.304C462.688 365.642 462.362 364.951 462.124 364.219C461.857 363.547 461.689 362.875 461.581 362.174C461.413 361.205 461.363 360.207 461.472 359.179C461.462 359.09 461.472 359.021 461.472 358.932C461.66 357.163 462.193 355.543 463.054 354.11C465.317 350.167 469.726 347.686 474.521 348.072" fill="#AFFF05"/>
<path d="M482.607 352.024C484.851 354.485 486.067 357.855 485.701 361.442C485.562 362.816 485.207 364.111 484.643 365.287C484.436 365.771 484.169 366.235 483.882 366.66C483.694 366.976 483.487 367.283 483.259 367.569C483.081 367.836 482.874 368.083 482.646 368.32C480.126 371.107 476.359 372.708 472.336 372.293C468.332 371.878 464.981 369.546 463.083 366.304C462.688 365.642 462.362 364.951 462.124 364.219C461.857 363.547 461.689 362.875 461.581 362.174C461.413 361.205 461.363 360.207 461.472 359.179C461.462 359.09 461.472 359.021 461.472 358.932C461.66 357.163 462.193 355.543 463.054 354.11C465.317 350.167 469.726 347.686 474.521 348.072" stroke="black" stroke-linecap="round" stroke-linejoin="round"/>
<path d="M274.006 391.752C275.943 394.114 277.357 396.861 278.158 399.806C278.958 402.751 279.116 405.844 278.642 408.858L244.191 388.066C248.679 384.716 254.284 383.233 259.84 383.915C265.396 384.597 270.477 387.404 274.006 391.742V391.752Z" fill="#001E2B" stroke="black" stroke-linecap="round" stroke-linejoin="round"/>
<path d="M279.511 409.392L276.862 414.728L276.496 415.509C273.965 420.559 269.566 424.423 264.228 426.29C258.9 428.158 253.048 427.872 247.917 425.5C242.787 423.128 238.783 418.849 236.757 413.582C234.73 408.314 234.829 402.454 237.044 397.256L238.546 394.301L242.263 386.979L244.171 388.145L278.621 408.937L279.521 409.402L279.511 409.392Z" fill="black" stroke="black" stroke-linecap="round" stroke-linejoin="round"/>
<path d="M258.743 419.659C270.694 420.894 281.38 412.208 282.616 400.27C283.852 388.322 275.172 377.64 263.221 376.404C251.269 375.169 240.583 383.846 239.348 395.793C238.112 407.741 246.791 418.424 258.743 419.659Z" fill="#AFFF05" stroke="black" stroke-linecap="round" stroke-linejoin="round"/>
<path d="M259.73 410.133C266.413 410.824 272.403 405.962 273.095 399.282C273.787 392.601 268.924 386.613 262.241 385.921C255.549 385.229 249.568 390.091 248.876 396.772C248.184 403.462 253.048 409.441 259.73 410.133Z" fill="#AFFF05" stroke="black" stroke-linecap="round" stroke-linejoin="round"/>
<path d="M178.068 218.09L208.199 174.528L291.721 357.134L261.115 400.102L178.059 218.1L178.068 218.09Z" fill="#00EB64" stroke="black" stroke-linecap="round" stroke-linejoin="round"/>
<path d="M505.668 312.495L499.213 313.839L489.485 315.875C488.042 312.564 487.409 308.858 487.805 304.994C488.012 303.008 488.467 301.111 489.169 299.332L487.083 303.463L485.581 306.417C484.286 309.767 483.841 313.394 484.296 316.952L470.594 319.818L437.251 326.765L398.53 334.839V334.859L359.7 342.942L326.08 349.949L314.159 352.449L309.443 353.418L304.342 354.485L298.105 355.809L297.927 355.839L291.719 357.143L288.526 350.186V350.166L288.437 349.979L285.036 342.518L283.257 338.624L281.003 333.712L271.642 313.226H271.622L250.002 265.959L228.008 217.862L208.197 174.538L255.242 165.031L304.965 154.981L360.155 143.823L413.991 132.943L463.833 122.863L511.164 113.297L509.879 160.505L508.426 213.355L506.963 266.137L506.439 285.714L506.172 295.557L505.895 305.271L505.697 312.515L505.668 312.495Z" fill="#FFE012" stroke="black" stroke-linecap="round" stroke-linejoin="round"/>
<path d="M475.469 357.084L464.477 359.169L459.109 360.266L458.21 360.434L457.29 360.602L457.27 360.622L455.106 361.056L451.448 361.778L451.132 361.837L443.322 363.418H443.302L422.385 367.638H422.316L407.745 370.583L373.907 377.392L369.666 378.232L334.227 385.367L334.208 385.387L295.407 393.184L282.616 395.743L277.129 396.85L273.136 397.651L266.275 399.044L265.534 399.183L263.349 399.617H263.26L263.24 399.627L262.677 399.766L261.125 400.072L261.768 399.163L261.975 398.856L262.025 398.817L264.278 395.625L269.083 388.905L269.854 387.838L274.638 381.088L276.22 378.864L276.863 377.985L278.306 375.949L280.738 372.51L281.746 371.117L283.11 369.2L287.351 363.231L291.72 357.104L297.928 355.799L298.106 355.769L304.344 354.445L309.445 353.378L314.16 352.409L326.082 349.909L359.702 342.903L398.532 334.819V334.799L437.253 326.725L470.596 319.778L484.297 316.912C484.505 318.77 484.979 320.608 485.701 322.377C486.511 324.383 494.469 325.026 495.814 326.686L475.4 357.044" fill="#00EB64"/>
<path d="M475.469 357.084L464.477 359.169L459.109 360.266L458.21 360.434L457.29 360.602L457.27 360.622L455.106 361.056L451.448 361.778L451.132 361.837L443.322 363.418H443.302L422.385 367.638H422.316L407.745 370.583L373.907 377.392L369.666 378.232L334.227 385.367L334.208 385.387L295.407 393.184L282.616 395.743L277.129 396.85L273.136 397.651L266.275 399.044L265.534 399.183L263.349 399.617H263.26L263.24 399.627L262.677 399.766L261.125 400.072L261.768 399.163L261.975 398.856L262.025 398.817L264.278 395.625L269.083 388.905L269.854 387.838L274.638 381.088L276.22 378.864L276.863 377.985L278.306 375.949L280.738 372.51L281.746 371.117L283.11 369.2L287.351 363.231L291.72 357.104L297.928 355.799L298.106 355.769L304.344 354.445L309.445 353.378L314.16 352.409L326.082 349.909L359.702 342.903L398.532 334.819V334.799L437.253 326.725L470.596 319.778L484.297 316.912C484.505 318.77 484.979 320.608 485.701 322.377C486.511 324.383 494.469 325.026 495.814 326.686L475.4 357.044" stroke="black" stroke-linecap="round" stroke-linejoin="round"/>
<path d="M505.669 312.495L502.545 317.249L497.296 325.253C493.846 322.951 491.118 319.67 489.477 315.875L499.204 313.839L505.659 312.495H505.669Z" fill="#00EB64" stroke="black" stroke-linecap="round" stroke-linejoin="round"/>
<path d="M270.012 348.397L268.51 351.352C268.925 350.325 269.429 349.336 270.012 348.397Z" fill="#001E2B" stroke="black" stroke-linecap="round" stroke-linejoin="round"/>
<path d="M305.451 345.917C307.389 348.279 308.792 351.026 309.593 353.981C310.394 356.926 310.562 360.009 310.087 363.033L275.617 342.241C280.105 338.9 285.72 337.418 291.276 338.1C296.831 338.782 301.912 341.588 305.451 345.927V345.917Z" fill="#001E2B" stroke="black" stroke-linecap="round" stroke-linejoin="round"/>
<path d="M527.989 318.602L527.969 318.622C523.738 325.52 515.79 329.749 507.21 328.86C503.542 328.484 500.162 327.2 497.315 325.253C493.865 322.95 491.136 319.669 489.495 315.875C488.052 312.564 487.419 308.858 487.815 304.994C488.022 303.008 488.477 301.11 489.179 299.332C489.199 299.312 489.209 299.272 489.238 299.223L490.79 296.14L492.698 297.306L498.956 301.091L505.875 305.251L519.784 313.641L527.169 318.088L527.999 318.592L527.989 318.602Z" fill="black" stroke="black" stroke-linecap="round" stroke-linejoin="round"/>
<path d="M531.073 309.471C530.727 312.831 529.63 315.924 527.989 318.602C527.989 318.622 527.969 318.622 527.969 318.622C523.738 325.52 515.79 329.749 507.21 328.86C503.542 328.484 500.162 327.2 497.315 325.253C493.865 322.95 491.136 319.669 489.495 315.874C488.052 312.564 487.419 308.858 487.815 304.994C488.022 303.008 488.477 301.11 489.179 299.331C489.199 299.312 489.209 299.272 489.238 299.223C492.085 291.989 498.699 286.771 506.429 285.694C508.129 285.447 509.909 285.417 511.698 285.595C523.649 286.83 532.329 297.513 531.093 309.461L531.073 309.471Z" fill="#AFFF05" stroke="black" stroke-linecap="round" stroke-linejoin="round"/>
<path d="M508.199 319.334C514.882 320.026 520.872 315.164 521.564 308.483C522.256 301.803 517.392 295.814 510.71 295.122C504.018 294.43 498.037 299.293 497.345 305.973C496.653 312.653 501.517 318.642 508.199 319.334Z" fill="#AFFF05" stroke="black" stroke-linecap="round" stroke-linejoin="round"/>
<path d="M278.889 376.078C281.341 376.335 283.535 374.547 283.782 372.106C284.039 369.655 282.25 367.461 279.808 367.214C277.357 366.957 275.162 368.746 274.915 371.187C274.658 373.638 276.447 375.831 278.889 376.078Z" fill="#001E2B"/>
<path d="M275.665 369.15L257.951 395.003C256.577 397.038 257.12 399.805 259.157 401.179C261.193 402.553 263.961 402.009 265.335 399.973L283.05 374.121L275.665 369.16V369.15Z" fill="black" stroke="black" stroke-linecap="round" stroke-linejoin="round"/>
<path d="M160.145 204.688L178.067 218.089" stroke="black" stroke-linecap="round" stroke-linejoin="round"/>
<path d="M185.867 157.817L208.188 174.528" stroke="black" stroke-linecap="round" stroke-linejoin="round"/>
<path d="M188.24 160.534L158.86 205.37L158.841 205.519C158.406 206.2 157.832 206.783 157.16 207.238C156.488 207.693 155.737 208.009 154.936 208.157C154.145 208.315 153.325 208.295 152.534 208.127C151.743 207.95 150.992 207.623 150.329 207.149C149.667 206.675 149.113 206.072 148.698 205.38C148.283 204.688 148.006 203.918 147.897 203.107C147.789 202.307 147.838 201.487 148.056 200.706C148.273 199.925 148.639 199.194 149.143 198.561L179.679 152.431L188.25 160.514L188.24 160.534Z" fill="#AFFF05" stroke="black" stroke-linecap="round" stroke-linejoin="round"/>
<path d="M183.84 161.849C187.122 162.185 190.058 159.803 190.404 156.522C190.74 153.241 188.358 150.306 185.076 149.96C181.794 149.624 178.858 152.006 178.512 155.287C178.176 158.568 180.558 161.503 183.84 161.849Z" fill="#AFFF05" stroke="black" stroke-linecap="round" stroke-linejoin="round"/>
<path d="M304.967 154.971L360.048 342.389L334.218 385.407" stroke="black" stroke-linecap="round" stroke-linejoin="round"/>
<path d="M443.293 363.459L443.303 363.429" stroke="black" stroke-linecap="round" stroke-linejoin="round"/>
<path d="M443.322 363.439L443.51 363.103L444.756 361.107L457.033 341.51L470.586 319.818L468.995 273.717L467.205 221.726L465.426 169.538L463.805 122.844" stroke="black" stroke-linecap="round" stroke-linejoin="round"/>
<path d="M407.754 370.594L437.252 326.766L413.982 132.924" stroke="black" stroke-linecap="round" stroke-linejoin="round"/>
<path d="M369.676 378.242L398.531 334.859L360.146 143.804" stroke="black" stroke-linecap="round" stroke-linejoin="round"/>
<path d="M295.407 393.195L326.081 349.95L255.232 165.012" stroke="black" stroke-linecap="round" stroke-linejoin="round"/>
<path d="M197.631 260.989L228.009 217.842L509.86 160.485" stroke="black" stroke-linecap="round" stroke-linejoin="round"/>
<path d="M220.141 310.291L250.004 265.949L508.418 213.346" stroke="black" stroke-linecap="round" stroke-linejoin="round"/>
<path d="M241.66 357.45L271.623 313.206L506.954 266.117" stroke="black" stroke-linecap="round" stroke-linejoin="round"/>
<path d="M488.943 327.961C487.588 326.301 486.501 324.423 485.7 322.417C484.979 320.638 484.504 318.8 484.297 316.952C483.852 313.395 484.296 309.778 485.582 306.418L487.084 303.463L489.17 299.332C488.478 301.121 488.013 303.008 487.806 304.995C487.4 308.859 488.033 312.574 489.486 315.875C491.127 319.67 493.856 322.951 497.306 325.253C500.153 327.2 503.533 328.485 507.201 328.86C515.791 329.75 523.739 325.51 527.96 318.622L525.331 323.939L524.945 324.72C522.296 329.572 517.927 333.219 512.667 334.958C507.408 336.687 501.705 336.341 496.703 334.009C496.426 333.871 496.159 333.752 495.882 333.614" fill="black"/>
<path d="M488.943 327.961C487.588 326.301 486.501 324.423 485.7 322.417C484.979 320.638 484.504 318.8 484.297 316.952C483.852 313.395 484.296 309.778 485.582 306.418L487.084 303.463L489.17 299.332C488.478 301.121 488.013 303.008 487.806 304.995C487.4 308.859 488.033 312.574 489.486 315.875C491.127 319.67 493.856 322.951 497.306 325.253C500.153 327.2 503.533 328.485 507.201 328.86C515.791 329.75 523.739 325.51 527.96 318.622L525.331 323.939L524.945 324.72C522.296 329.572 517.927 333.219 512.667 334.958C507.408 336.687 501.705 336.341 496.703 334.009C496.426 333.871 496.159 333.752 495.882 333.614" stroke="black" stroke-linecap="round" stroke-linejoin="round"/>
<path d="M486.382 335.423L482.408 336.253H482.378L462.766 340.314L457.032 341.49V341.51L422.522 348.625L384.078 356.6L346.879 364.279L310.58 371.79L305.845 372.778L280.42 378.025L277.761 378.569L276.209 378.895L275.3 376.928L273.322 372.63L266.788 358.488L256.3 335.808L234.592 288.818L212.172 240.325L192.361 197.426" stroke="black" stroke-linecap="round" stroke-linejoin="round"/>
<path d="M310.956 363.557L308.198 368.883L307.812 369.664C305.232 374.635 300.843 378.43 295.535 380.238C290.236 382.047 284.433 381.75 279.352 379.398C274.271 377.046 270.287 372.817 268.241 367.609C266.195 362.391 266.244 356.59 268.37 351.411L269.872 348.457L273.589 341.134L275.477 342.3L309.947 363.092L310.956 363.577V363.557Z" fill="black" stroke="black" stroke-linecap="round" stroke-linejoin="round"/>
<path d="M290.168 373.815C302.12 375.051 312.806 366.374 314.042 354.426C315.277 342.479 306.598 331.796 294.647 330.56C282.695 329.325 272.009 338.002 270.773 349.95C269.538 361.897 278.217 372.58 290.168 373.815Z" fill="#AFFF05" stroke="black" stroke-linecap="round" stroke-linejoin="round"/>
<path d="M291.156 364.299C297.848 364.991 303.829 360.128 304.521 353.448C305.213 346.767 300.349 340.779 293.667 340.087C286.975 339.395 280.994 344.257 280.302 350.938C279.61 357.628 284.474 363.607 291.156 364.299Z" fill="#AFFF05" stroke="black" stroke-linecap="round" stroke-linejoin="round"/>
<path d="M498.349 331.655C499.748 329.583 499.203 326.771 497.133 325.374C495.063 323.977 492.251 324.524 490.852 326.596L470.156 357.246C468.757 359.318 469.301 362.13 471.371 363.527C473.442 364.924 476.254 364.377 477.653 362.305L498.349 331.655Z" fill="black" stroke="black" stroke-linecap="round" stroke-linejoin="round"/>
<path d="M591.414 133.448C600.854 133.448 608.506 125.798 608.506 116.361C608.506 106.924 600.854 99.2744 591.414 99.2744C581.975 99.2744 574.322 106.924 574.322 116.361C574.322 125.798 581.975 133.448 591.414 133.448Z" fill="white" stroke="black" stroke-miterlimit="10"/>
<path d="M578.771 127.804C578.771 127.804 601.251 124.731 607.222 109.65C609.91 115.115 609.248 126.658 600.173 130.927C591.099 135.196 583.862 131.945 578.771 127.804Z" fill="black"/>
<path d="M531.182 148.212L526.516 271.435" stroke="black" stroke-linecap="round" stroke-linejoin="round"/>
<path d="M542.263 173.511L539.377 249.516" stroke="black" stroke-linecap="round" stroke-linejoin="round"/>
<path d="M221.74 358.014L231.616 379.142" stroke="black" stroke-linecap="round" stroke-linejoin="round"/>
<path d="M184.76 278.816L195.97 302.821L216.482 346.748" stroke="black" stroke-linecap="round" stroke-linejoin="round"/>
<path d="M130.36 285.033L109.423 293.818L89.4941 277.681L109.868 268.431L130.36 285.033Z" fill="black" stroke="black" stroke-linejoin="round"/>
<path d="M130.401 284.993L134.651 262.689L114.722 246.551L109.908 268.391L130.401 284.993Z" fill="white" stroke="black" stroke-linejoin="round"/>
<path d="M94.5456 256.018L89.4941 277.68L109.907 268.391L114.722 246.551L94.5456 256.018Z" fill="white" stroke="black" stroke-linejoin="round"/>
</g>
</g>
<defs>
<clipPath id="clip0_3728_12618">
<rect width="698" height="468" fill="white"/>
</clipPath>
<clipPath id="clip1_3728_12618">
<rect width="520" height="388" fill="white" transform="translate(89 40)"/>
</clipPath>
</defs>
</svg>
