<svg width="696" height="464" viewBox="0 0 696 464" fill="none" xmlns="http://www.w3.org/2000/svg">
<g clip-path="url(#clip0_635_808)">
<mask id="mask0_635_808" style="mask-type:luminance" maskUnits="userSpaceOnUse" x="6" y="17" width="684" height="417">
<path d="M690 17H6V434H690V17Z" fill="white"/>
</mask>
<g mask="url(#mask0_635_808)">
<mask id="mask1_635_808" style="mask-type:luminance" maskUnits="userSpaceOnUse" x="39" y="20" width="491" height="415">
<path d="M479.609 20.5164L39.2031 83.4854L89.4827 434.002L529.889 371.033L479.609 20.5164Z" fill="white"/>
</mask>
<g mask="url(#mask1_635_808)">
<path d="M219.828 153.28L222.251 150.913C223.273 149.945 224.042 148.746 224.516 147.421L225.169 143.656L207.144 151.754C207.238 152.449 207.712 156.95 208.503 164.344L218.795 154.321L219.817 153.259L219.828 153.28Z" fill="white" stroke="black" stroke-linecap="round" stroke-linejoin="round"/>
<path d="M330.127 134.032L349.311 125.449C349.564 125.334 349.837 125.292 350.111 125.334L370.981 128.195L387.047 120.979L390.165 119.612C390.418 119.496 390.692 119.454 390.966 119.496L411.825 122.357L431.009 113.775C431.262 113.659 431.536 113.617 431.81 113.659L442.798 115.163L453.08 116.562C453.311 116.53 457.051 137.703 462.266 167.836L482.735 286.898C484.294 296.091 485.78 304.957 487.202 313.34L229.729 350.163C222.628 288.129 210.861 184.844 207.121 151.755L225.146 143.656L226.727 142.972C226.979 142.856 227.253 142.814 227.527 142.856L248.397 145.717L267.602 137.124C267.855 136.998 268.139 136.966 268.413 137.009L271.626 137.45L289.23 139.88" fill="white"/>
<path d="M330.127 134.032L349.311 125.449C349.564 125.334 349.837 125.292 350.111 125.334L370.981 128.195L387.047 120.979L390.165 119.612C390.418 119.496 390.692 119.454 390.966 119.496L411.825 122.357L431.009 113.775C431.262 113.659 431.536 113.617 431.81 113.659L442.798 115.163L453.08 116.562C453.311 116.53 457.051 137.703 462.266 167.836L482.735 286.898C484.295 296.091 485.78 304.957 487.202 313.34L229.729 350.163C222.628 288.129 210.861 184.844 207.121 151.755L225.146 143.656L226.727 142.972C226.979 142.856 227.253 142.814 227.527 142.856L248.397 145.717L267.602 137.124C267.855 136.998 268.139 136.966 268.413 137.009L271.626 137.45L289.23 139.88" stroke="black" stroke-linecap="round" stroke-linejoin="round"/>
<path d="M391.777 153.9L385.677 111.366C383.897 98.997 378.177 87.522 369.359 78.645C360.541 69.768 349.1 63.9621 336.732 62.0794C327.736 60.7121 318.549 61.4694 309.9 64.2777C301.251 67.0859 293.381 71.882 286.913 78.2769C280.455 84.6717 275.577 92.4864 272.68 101.09C269.783 109.704 268.951 118.865 270.236 127.858L276.336 170.392" stroke="black" stroke-linecap="round" stroke-linejoin="round"/>
<path d="M524.559 354.811L497.199 375.29L236.871 412.228C236.871 412.228 236.745 411.324 236.566 409.514C236.503 409.083 236.439 408.61 236.355 408.063C236.271 407.516 236.281 406.959 236.187 406.338C235.934 404.592 235.702 402.499 235.428 400.091C235.312 399.323 235.28 398.513 235.165 397.671L235.017 396.62C234.922 395.957 234.828 395.263 234.806 394.6C234.311 391.14 233.922 387.217 233.458 382.894C233.268 381.537 233.131 380.18 232.984 378.813C232.573 375.342 232.141 371.619 231.699 367.696C231.583 366.928 231.551 366.181 231.446 365.424C231.098 362.226 230.708 358.903 230.319 355.463C230.203 354.622 230.076 353.781 229.95 352.918C229.823 352.056 229.686 351.088 229.634 350.204L498.032 311.814L524.559 354.811Z" fill="#26EA6B" stroke="black" stroke-linecap="round" stroke-linejoin="round"/>
<path d="M457.325 119.065L453.09 116.541C453.279 116.509 497.695 374.932 497.695 374.932L524.559 354.811C524.559 354.811 457.557 119.096 457.325 119.065Z" fill="black" stroke="black" stroke-miterlimit="10"/>
<mask id="mask2_635_808" style="mask-type:luminance" maskUnits="userSpaceOnUse" x="207" y="113" width="291" height="300">
<path d="M330.128 134.032L349.312 125.449C349.565 125.334 349.839 125.292 350.113 125.334L370.982 128.195L387.048 120.979L390.167 119.612C390.419 119.496 390.693 119.454 390.967 119.496L411.826 122.357L431.01 113.775C431.263 113.659 431.537 113.617 431.811 113.659L442.799 115.163L453.081 116.562C453.313 116.53 457.053 137.703 462.267 167.836L482.737 286.898C484.296 296.091 495.758 366.897 497.191 375.279L236.863 412.218C229.762 350.184 210.883 184.844 207.144 151.755L225.169 143.656L226.749 142.972C227.002 142.856 227.276 142.814 227.55 142.856L248.419 145.717L267.624 137.124C267.877 136.998 268.162 136.966 268.436 137.009L271.649 137.45L289.253 139.88L308.479 131.287" fill="white"/>
</mask>
<g mask="url(#mask2_635_808)">
<path d="M213.579 158.118L215.381 157.697C215.665 157.624 215.971 157.634 216.255 157.729L237.82 164.818L259.849 159.443C260.144 159.359 260.449 159.38 260.734 159.475L264.063 160.569L282.246 166.564L304.306 161.189C304.59 161.116 304.896 161.126 305.17 161.221L326.724 168.31L348.742 162.935C349.027 162.862 349.332 162.872 349.617 162.967L371.182 170.056L389.618 165.533L393.2 164.681C393.484 164.607 393.789 164.618 394.074 164.713L415.628 171.802L437.646 166.427C437.931 166.353 439.532 154.058 439.532 154.058C439.532 154.058 464.005 401.5 463.878 410.661L236.893 412.218C236.893 412.218 190.424 199.001 192.92 163.188L213.611 158.097L213.579 158.118Z" fill="black"/>
</g>
</g>
<mask id="mask3_635_808" style="mask-type:luminance" maskUnits="userSpaceOnUse" x="5" y="17" width="479" height="394">
<path d="M36.1245 17.01L5.99902 372.948L453.213 410.676L483.339 54.7382L36.1245 17.01Z" fill="white"/>
</mask>
<g mask="url(#mask3_635_808)">
<path d="M197.851 126.48L200.769 124.703C201.991 123.977 203.024 122.978 203.793 121.789L205.289 118.234L185.736 122.126C185.673 122.831 185.114 127.364 184.219 134.81L196.608 127.29L197.851 126.48Z" fill="white" stroke="black" stroke-linecap="round" stroke-linejoin="round"/>
<path d="M205.288 118.235L206.995 117.919C207.269 117.856 207.553 117.888 207.806 117.993L227.675 125.523L248.503 121.422C248.777 121.358 249.071 121.379 249.324 121.495L252.39 122.652L269.14 129.015L289.989 124.924C290.263 124.861 290.547 124.892 290.8 124.998L310.659 132.528L331.465 128.426C331.739 128.363 332.023 128.395 332.276 128.5L352.145 136.031L369.57 132.57L372.951 131.929C373.225 131.866 373.51 131.897 373.763 132.002L393.621 139.533L414.427 135.431C414.701 135.368 414.986 135.4 415.239 135.505L425.7 139.47L435.497 143.172C435.729 143.193 434.602 164.85 432.885 195.656L425.984 317.326C425.426 326.719 424.878 335.764 424.372 344.336L162.917 322.28C170.018 259.699 181.901 155.51 185.736 122.126L205.288 118.235Z" fill="white" stroke="black" stroke-linecap="round" stroke-linejoin="round"/>
<path d="M366.736 165.996L370.391 122.799C371.445 110.241 368.432 97.6616 361.784 86.9439C355.137 76.2263 345.202 67.9277 333.466 63.2788C324.933 59.9026 315.726 58.5668 306.592 59.3662C297.447 60.1761 288.63 63.1105 280.823 67.9277C273.017 72.7554 266.454 79.329 261.65 87.1332C256.846 94.9375 253.949 103.762 253.169 112.891L249.514 156.088" stroke="black" stroke-linecap="round" stroke-linejoin="round"/>
<path d="M451.658 393.538L420.116 407.485L155.827 384.893C155.827 384.893 155.901 383.978 156.143 382.147C156.185 381.706 156.217 381.232 156.27 380.675C156.322 380.118 156.449 379.571 156.501 378.94C156.649 377.162 156.902 375.058 157.176 372.629C157.239 371.84 157.397 371.041 157.471 370.189L157.565 369.116C157.618 368.443 157.681 367.738 157.818 367.086C158.113 363.573 158.629 359.629 159.156 355.264C159.272 353.886 159.462 352.519 159.609 351.151C159.988 347.639 160.42 343.884 160.863 339.939C160.926 339.151 161.063 338.414 161.126 337.647C161.505 334.428 161.874 331.062 162.285 327.602C162.359 326.75 162.433 325.898 162.506 325.015C162.58 324.131 162.664 323.164 162.812 322.27L435.36 345.261L451.679 393.528L451.658 393.538Z" fill="#26EA6B" stroke="black" stroke-linecap="round" stroke-linejoin="round"/>
<path d="M372.467 220.994L269.162 288.213" stroke="black" stroke-linecap="round" stroke-linejoin="round"/>
<path d="M345.592 213.81L270.479 264.59" stroke="black" stroke-linecap="round" stroke-linejoin="round"/>
<path d="M439.079 146.58L435.487 143.13C435.677 143.151 420.675 407.222 420.675 407.222L451.647 393.528C451.647 393.528 439.29 146.653 439.069 146.569L439.079 146.58Z" fill="black" stroke="black" stroke-miterlimit="10"/>
</g>
<path d="M134.104 249.086L125.16 331.472" stroke="black" stroke-miterlimit="10"/>
<path d="M154.848 175.704L134.905 359.198" stroke="black" stroke-miterlimit="10"/>
<path d="M139.003 204.039L135.685 234.614" stroke="black" stroke-miterlimit="10"/>
<path d="M507.43 122.241L506.851 125.965L503.501 147.358L503.364 148.294C503.153 149.609 503.322 150.955 503.848 152.175C504.375 153.395 505.249 154.447 506.345 155.194L532.345 180.047C533.199 180.615 534.168 180.994 535.179 181.162L632.553 196.434C633.459 196.581 634.397 196.539 635.292 196.329C636.188 196.119 637.031 195.729 637.779 195.182C638.527 194.646 639.159 193.962 639.643 193.174C640.128 192.385 640.444 191.512 640.591 190.607L651.179 123.209C651.326 122.304 651.284 121.368 651.063 120.474C650.842 119.58 650.452 118.739 649.915 117.992C649.367 117.245 648.682 116.625 647.892 116.141C647.102 115.668 646.228 115.342 645.322 115.205L562.559 102.215L551.677 100.522L550.581 100.343L548.011 99.9439C546.947 99.7649 545.861 99.8379 544.829 100.154L542.216 101.49L512.287 116.656C511.033 117.035 509.906 117.761 509.042 118.749C508.178 119.738 507.62 120.948 507.42 122.241H507.43ZM529.754 138.702C529.511 140.237 528.827 141.668 527.762 142.814C526.709 143.961 525.339 144.76 523.822 145.128C522.305 145.496 520.725 145.402 519.261 144.865C517.796 144.329 516.532 143.372 515.616 142.12C514.699 140.868 514.172 139.364 514.109 137.808C514.046 136.251 514.446 134.716 515.258 133.39C516.069 132.065 517.259 131.003 518.671 130.351C520.083 129.699 521.663 129.478 523.201 129.72C524.223 129.877 525.203 130.235 526.087 130.771C526.972 131.308 527.741 132.012 528.352 132.843C528.963 133.674 529.395 134.621 529.638 135.631C529.88 136.64 529.922 137.682 529.754 138.702Z" fill="#B2FC34" stroke="black" stroke-linecap="round" stroke-linejoin="round"/>
<path d="M564.435 139.185C566.573 131.97 572.115 128.026 579.626 128.489C579.826 128.51 580.026 128.573 580.205 128.668C580.385 128.762 580.543 128.899 580.669 129.067C580.795 129.236 580.88 129.414 580.932 129.614C580.985 129.814 580.985 130.024 580.953 130.224L580.922 130.456C580.859 130.824 580.648 131.16 580.353 131.392C580.058 131.623 579.679 131.728 579.299 131.697C572.504 131.339 567.964 134.968 566.721 142.498C565.478 150.029 568.491 155.551 574.927 156.613C583.092 157.97 586.01 150.292 588.128 145.16C591.099 138.007 594.975 129.898 605.173 131.592C613.527 132.927 617.204 139.333 616.698 147.831C616.667 148.199 616.783 148.567 617.014 148.862C617.246 149.156 617.573 149.356 617.942 149.419L622.335 150.145C622.724 150.219 623.072 150.429 623.304 150.755C623.536 151.081 623.63 151.481 623.567 151.87C623.504 152.259 623.283 152.606 622.967 152.838C622.651 153.069 622.25 153.164 621.85 153.1L617.446 152.364C617.078 152.312 616.698 152.385 616.393 152.596C616.077 152.795 615.856 153.111 615.761 153.469C613.327 161.935 606.774 166.437 598.894 165.827C598.684 165.817 598.473 165.764 598.283 165.659C598.094 165.564 597.925 165.427 597.799 165.259C597.672 165.091 597.567 164.901 597.514 164.702C597.462 164.502 597.451 164.281 597.483 164.071L597.525 163.85C597.588 163.461 597.799 163.113 598.115 162.882C598.431 162.651 598.821 162.535 599.21 162.577C606.343 163.156 612.084 158.612 613.569 149.745C614.907 141.657 611.684 135.83 604.773 134.715C596.966 133.422 594.069 139.617 591.499 145.717C588.191 153.553 584.567 161.42 574.601 159.758C567.111 158.517 563.255 153.185 563.571 144.749C563.592 144.381 563.476 144.013 563.244 143.729C563.013 143.445 562.686 143.245 562.317 143.182L557.903 142.446C557.513 142.383 557.166 142.162 556.934 141.846C556.702 141.52 556.607 141.121 556.671 140.732C556.734 140.342 556.955 139.995 557.271 139.764C557.598 139.532 557.987 139.438 558.388 139.501L562.791 140.237C563.149 140.29 563.518 140.206 563.824 140.006C564.129 139.806 564.35 139.501 564.456 139.154L564.435 139.185Z" fill="#011E2A"/>
<path d="M421.476 137.86C422.213 136.188 433.085 118.917 450.689 123.693C469.852 128.888 474.308 145.254 490.226 150.965C508.968 157.686 534.968 142.961 516.047 132.317" stroke="black" stroke-linecap="round" stroke-linejoin="round"/>
<path d="M506.281 129.636C506.281 129.636 501.161 129.499 496.052 135.136" stroke="black" stroke-linecap="round" stroke-linejoin="round"/>
<path d="M511.781 396.314L499.171 399.67C494.715 400.858 491.227 404.329 490.036 408.789L486.677 421.368L483.305 408.725C483.042 407.705 482.642 406.748 482.147 405.854C480.767 403.361 478.586 401.384 475.931 400.269C475.394 400.038 474.835 399.848 474.256 399.691L461.604 396.325L474.234 392.959C477.637 392.055 480.46 389.804 482.135 386.817C482.641 385.902 483.042 384.924 483.326 383.882L486.698 371.271L490.1 384.009C490.722 386.354 491.997 388.405 493.714 389.993C495.199 391.371 497.011 392.391 499.034 392.928L511.792 396.325L511.781 396.314Z" fill="#B2FD34" stroke="black" stroke-width="1.04" stroke-linecap="round" stroke-linejoin="round"/>
<path d="M450.499 65.7817L437.889 69.1369C433.433 70.3254 429.945 73.7963 428.755 78.2558L425.394 90.8351L422.023 78.1927C421.76 77.1725 421.36 76.2154 420.864 75.3214C419.484 72.8286 417.304 70.8513 414.649 69.7364C414.111 69.505 413.553 69.3157 412.974 69.1579L400.321 65.7922L412.953 62.4265C416.355 61.522 419.179 59.2712 420.854 56.2841C421.36 55.3691 421.76 54.3909 422.044 53.3496L425.415 40.7388L428.818 53.4759C429.44 55.8213 430.715 57.8723 432.432 59.4605C433.917 60.8383 435.729 61.8586 437.752 62.395L450.51 65.7922L450.499 65.7817Z" fill="#B2FD34" stroke="black" stroke-width="1.04" stroke-linecap="round" stroke-linejoin="round"/>
<path d="M257.511 213.841L244.9 217.196C240.444 218.384 236.957 221.855 235.767 226.315L232.406 238.894L229.035 226.252C228.772 225.232 228.371 224.274 227.876 223.38C226.496 220.888 224.315 218.91 221.66 217.795C221.123 217.564 220.565 217.375 219.985 217.217L207.333 213.851L219.964 210.486C223.367 209.581 226.191 207.33 227.866 204.343C228.371 203.428 228.772 202.45 229.056 201.409L232.427 188.798L235.83 201.535C236.451 203.88 237.726 205.931 239.443 207.52C240.929 208.897 242.741 209.918 244.764 210.454L257.521 213.851L257.511 213.841Z" fill="#B2FD34" stroke="black" stroke-width="1.04" stroke-linecap="round" stroke-linejoin="round"/>
<path d="M606.354 223.97L620.323 235.161L634.281 246.362L617.583 252.831L600.896 259.299L603.625 241.64L606.354 223.97Z" fill="white" stroke="black" stroke-linecap="round" stroke-linejoin="round"/>
<path d="M613.633 242.67L600.896 259.299L634.281 246.362L613.633 242.67Z" fill="black"/>
<path d="M613.633 242.67L606.354 223.97" stroke="black" stroke-linecap="round" stroke-linejoin="round"/>
<path d="M565.214 391.634C616.909 370.514 641.666 311.551 620.512 259.94" stroke="black" stroke-linecap="round" stroke-linejoin="round"/>
</g>
</g>
<defs>
<clipPath id="clip0_635_808">
<rect width="696" height="464" fill="white"/>
</clipPath>
</defs>
</svg>
